<svg xmlns="http://www.w3.org/2000/svg" width="120" height="120" viewBox="0 0 64 64" role="img" aria-label="Focinhos Amados">
  <defs>
    <linearGradient id="g" x1="0" y1="0" x2="1" y2="1">
      <stop offset="0" stop-color="#029935"></stop>
      <stop offset="1" stop-color="#02862F"></stop>
    </linearGradient>
  </defs>
  <rect width="64" height="64" rx="14" fill="url(#g)"></rect>
  <!-- coração -->
  <path fill="#fff" d="M32 48c-6.6-5.4-11-9.1-13.2-12.4-3-4.4-2.5-9.9 1.3-13 2.8-2.2 7.2-2.3 9.9.9l2 2.3 2-2.3c2.7-3.2 7.1-3.1 9.9-.9 3.8 3.1 4.3 8.6 1.3 13C43 38.9 38.6 42.6 32 48z"></path>
  <!-- patinha -->
  <circle cx="24" cy="23" r="2.2" fill="#029935"></circle>
  <circle cx="40" cy="23" r="2.2" fill="#029935"></circle>
  <circle cx="30" cy="21" r="2.2" fill="#029935"></circle>
  <circle cx="34" cy="21" r="2.2" fill="#029935"></circle>
</svg>
